<svg width="1340" height="2005" viewBox="0 0 1340 2005" fill="none" xmlns="http://www.w3.org/2000/svg">
<g clip-path="url(#clip0_2038_8128)">
<path d="M-392.413 0C-359.931 10.8281 -359.931 10.8281 -349.653 29.6927C-347.015 37.3139 -344.377 44.935 -341.659 52.7871C-337.576 64.1351 -337.576 64.1351 -333.411 75.7123C-327.448 97.4531 -327.448 97.4531 -327.448 129.938C-320.302 129.938 -313.155 129.938 -305.793 129.938C-301.773 120.223 -301.773 120.223 -297.672 110.312C-275.738 71.925 -249.706 57.1005 -208.344 43.3125C-142.257 36.6522 -95.1345 45.7796 -35.103 75.7969C24.2419 104.931 62.4019 113.516 127.311 108.281C156.954 98.2386 156.954 98.2386 181.449 86.625C192.168 86.625 202.887 86.625 213.932 86.625C242.96 124.587 251.776 158.723 257.242 205.734C278.68 195.015 300.119 184.295 322.208 173.25C317.008 201.327 311.07 216.979 293.785 240.249C275.5 277.653 273.989 301.21 279.785 342.059C296.541 386.054 329.376 412.867 364.122 443.488C392.706 470.919 406.92 491.784 411.323 531.339C410.031 593.141 410.031 593.141 398 617.203C460.058 618.88 515.951 613.44 576.656 600.961C584.528 599.412 592.4 597.862 600.51 596.266C619.642 592.49 638.755 588.615 657.863 584.719C654.808 567.105 651.626 549.513 648.388 531.932C646.63 522.133 644.871 512.334 643.059 502.239C638.043 474.65 638.043 474.65 614.552 454.781C576.656 451.172 576.656 451.172 538.759 454.781C528.04 465.501 528.04 465.501 517.104 476.438C517.104 490.731 517.104 505.024 517.104 519.75C549.262 530.47 549.262 530.47 582.07 541.406C578.496 552.126 574.923 562.846 571.242 573.891C528.326 577.257 502.061 577.408 463.643 556.972C441.311 530.578 441.311 530.578 437.927 489.973C439.044 478.359 440.16 466.746 441.311 454.781C409.153 449.421 409.153 449.421 376.345 443.953C368.901 419.59 368.901 419.59 365.518 389.812C381.083 364.772 381.083 364.772 398 346.5C389.291 338.907 380.582 331.314 371.608 323.49C340.512 288.6 333.977 273.525 333.035 227.391C343.186 190.846 343.186 190.846 354.69 162.422C365.409 162.422 376.129 162.422 387.173 162.422C391.193 173.812 395.212 185.202 399.354 196.937C425.069 255.031 460.282 282.623 518.246 305.81C530.598 310.304 542.951 314.799 555.677 319.43C610.825 339.507 644.336 353.729 679.518 400.641C685.994 408.904 692.47 417.167 699.143 425.681C717.245 466.651 714.929 496.741 712 541.406C708.427 548.553 704.854 555.699 701.173 563.062C712.332 557.2 712.332 557.2 723.716 551.219C738.351 543.682 738.351 543.682 753.281 535.992C762.953 530.967 772.626 525.942 782.591 520.765C809.449 508.922 809.449 508.922 841.932 508.922C835.532 561.401 820.499 602.125 798.621 649.688C811.574 647.231 824.526 644.774 837.871 642.243C885.046 636.678 910.357 643.621 950.208 671.344C999.195 713.192 1020.49 757.794 1041.57 818.2C1070.99 900.775 1110.96 937.411 1188.41 974.531C1188.41 985.251 1188.41 995.971 1188.41 1007.02C1101.83 1022.67 1101.83 1022.67 1060.51 1004.31C1052.7 998.055 1044.88 991.802 1036.83 985.359C1028.57 979.329 1020.3 973.3 1011.79 967.087C1005.76 962.397 999.73 957.707 993.518 952.875C989.945 963.595 986.372 974.315 982.69 985.359C951.561 987.39 951.561 987.39 917.725 985.359C896.07 952.875 896.07 952.875 896.07 909.562C884.457 910.679 872.844 911.796 860.88 912.946C820.276 909.562 820.276 909.562 793.884 886.553C774.501 850.886 772.522 830.453 776.966 790.453C780.539 783.307 784.112 776.16 787.794 768.797C798.513 772.37 809.232 775.943 820.276 779.625C823.85 797.491 827.423 815.358 831.104 833.766C857.266 836.476 857.266 836.476 885.242 833.766C910.036 803.281 910.036 803.281 906.22 768.797C898.85 734.899 898.85 734.899 871.708 716.01C840.957 703.43 820.627 701.014 787.794 703.828C747.254 784.912 731.5 873.166 733.656 963.703C739.015 959.906 744.375 956.11 749.897 952.198C790.855 936.838 823.388 937.387 863.587 952.875C892.796 975.64 918.786 999.954 944.878 1026.22C974.191 1052.41 1000.36 1068.25 1036.83 1082.81C1080.44 1074.68 1108.2 1064.1 1145.1 1039.5C1155.82 1039.5 1166.54 1039.5 1177.59 1039.5C1170.44 1060.94 1163.29 1082.38 1155.93 1104.47C1170.22 1108.04 1184.52 1111.62 1199.24 1115.3C1199.24 1126.02 1199.24 1136.74 1199.24 1147.78C1192.58 1149.62 1185.93 1151.47 1179.07 1153.36C1165.94 1157.3 1165.94 1157.3 1152.55 1161.32C1143.88 1163.83 1135.21 1166.34 1126.28 1168.93C1095.73 1183.07 1085.21 1193.88 1069.31 1223.58C1063.84 1259.28 1063.84 1259.28 1063.22 1298.02C1061.14 1356.47 1057.93 1410.99 1022.62 1459.77C999.21 1476.24 978.307 1479.66 950.208 1483.45C983.963 1530.76 1020.48 1559.53 1068.63 1590.38C1075.22 1594.88 1081.8 1599.37 1088.58 1604C1119.28 1623.87 1139.01 1635.34 1176.06 1633.57C1200.26 1626.06 1200.26 1626.06 1213.45 1605.95C1224.94 1567.29 1228.38 1530.91 1210.07 1494.28C1165.74 1482.5 1165.74 1482.5 1123.45 1494.28C1128.71 1528.1 1134.26 1559.2 1145.1 1591.73C1077.79 1568.08 1077.79 1568.08 1058.48 1537.59C1054.85 1504.94 1052.48 1482.39 1058.48 1450.97C1080.14 1423.9 1080.14 1423.9 1101.79 1407.66C1085.71 1380.86 1085.71 1380.86 1069.31 1353.52C1082.17 1331.86 1082.17 1331.86 1101.79 1310.2C1130.89 1307.5 1130.89 1307.5 1155.93 1310.2C1154.81 1297.25 1153.7 1284.3 1152.55 1270.95C1152.55 1235.05 1157.47 1214.81 1179.62 1186.36C1210.06 1158.62 1223.84 1150.09 1264.21 1147.78C1262.64 1156.71 1261.08 1165.65 1259.47 1174.85C1257.46 1187.36 1255.45 1199.86 1253.38 1212.75C1250.48 1226.37 1247.57 1240 1244.58 1254.03C1237.76 1309.14 1261.43 1348.8 1285.86 1396.83C1316.28 1460.35 1326.58 1511.69 1307.52 1580.91C1285.32 1621.61 1270.28 1641.83 1231.72 1667.53C1267.46 1685.4 1303.19 1703.26 1340 1721.67C1340 1732.39 1340 1743.11 1340 1754.16C1286.4 1775.6 1286.4 1775.6 1231.72 1797.47C1244.01 1809.53 1256.29 1821.59 1268.94 1834.01C1306.33 1876.94 1318.72 1909.16 1320.63 1965.77C1316.05 2019.12 1297.2 2061.56 1268.27 2106.07C1241.96 2153.91 1237.47 2197.06 1249.19 2249.42C1257.11 2275.94 1265.6 2302.03 1275.03 2328.05C1222.54 2320.3 1202.34 2302.62 1166.76 2263.08C1163.19 2259.5 1159.61 2255.93 1155.93 2252.25C1155.15 2235.8 1155.02 2219.31 1155.25 2202.85C1155.35 2193.9 1155.45 2184.95 1155.55 2175.73C1155.74 2165.37 1155.74 2165.37 1155.93 2154.8C1149.29 2157.02 1142.64 2159.24 1135.8 2161.52C1128.15 2162.88 1120.5 2164.23 1112.62 2165.62C1088.26 2144.65 1088.26 2144.65 1069.31 2122.31C1089.61 2070.88 1089.61 2070.88 1101.79 2046.52C1087.5 2039.37 1073.21 2032.22 1058.48 2024.86C1051.87 1946.81 1051.87 1946.81 1083.52 1905.75C1112.62 1884.09 1112.62 1884.09 1145.1 1884.09C1141.31 1892.13 1137.51 1900.17 1133.6 1908.46C1122.96 1939.67 1123.09 1951.36 1134.28 1981.55C1165.85 1984.26 1165.85 1984.26 1199.24 1981.55C1224.42 1943.78 1224.52 1928.47 1220.9 1884.09C1213.41 1859.16 1213.41 1859.16 1199.24 1840.78C1165.72 1825.72 1165.72 1825.72 1129.54 1844.84C1064.76 1878.99 1007.76 1925.83 950.208 1970.72C960.522 1975.63 970.836 1980.55 981.464 1985.61C1027.06 2009.41 1042.43 2030.84 1058.48 2079C1059.89 2115.18 1061.17 2151.29 1061.23 2187.49C1062.73 2229.71 1067.78 2250.28 1093.97 2283.93C1133.62 2314.14 1161.65 2319.02 1210.07 2328.05C1188.41 2360.53 1188.41 2360.53 1165.41 2367.98C1158.71 2369.09 1152.01 2370.21 1145.1 2371.36C1155.82 2385.65 1166.54 2399.95 1177.59 2414.67C1174.01 2421.82 1170.44 2428.97 1166.76 2436.33C1161.26 2433.2 1155.76 2430.07 1150.09 2426.85C1086.22 2392.01 1086.22 2392.01 1015.17 2393.02C976.031 2416.49 942.045 2445.63 908.462 2476.38C869.597 2511.82 843.188 2534.96 787.794 2533.78C765.902 2523.44 744.21 2512.66 722.828 2501.3C727.751 2530.18 732.72 2559.05 737.716 2587.92C739.084 2595.98 740.452 2604.03 741.861 2612.33C751.246 2666.3 763.114 2719 776.966 2772C844.526 2763.52 844.526 2763.52 898.1 2725.3C909.378 2696.32 909.378 2696.32 900.807 2666.43C887.532 2640.32 887.532 2640.32 862.233 2633.26C855.534 2632.59 848.834 2631.92 841.932 2631.23C834.785 2652.67 827.639 2674.11 820.276 2696.2C805.984 2692.63 791.692 2689.06 776.966 2685.38C771.746 2617.51 771.746 2617.51 793.884 2583.86C827.623 2561.37 856.058 2558.52 896.07 2555.44C896.74 2546.95 897.409 2538.46 898.1 2529.72C906.897 2501.3 906.897 2501.3 931.259 2485.05C961.035 2479.64 961.035 2479.64 991.488 2494.53C999.304 2500.34 1007.12 2506.14 1015.17 2512.12C1021.87 2503.19 1028.57 2494.26 1035.47 2485.05C1056.09 2464.02 1066.7 2458.37 1096.25 2454.01C1169.21 2453.8 1169.21 2453.8 1199.24 2468.81C1188.41 2501.3 1188.41 2501.3 1169.93 2511.66C1162.41 2514.72 1154.89 2517.77 1147.13 2520.92C1075.95 2555.12 1058.72 2608.3 1033.44 2679.96C1007.21 2751.35 974.768 2792.2 906.897 2826.14C890.22 2826.89 873.512 2827.06 856.82 2826.82C847.97 2826.72 839.122 2826.62 830.004 2826.52C819.829 2826.33 819.829 2826.33 809.449 2826.14C814.473 2840.21 814.473 2840.21 819.6 2854.56C830.291 2888.53 836.906 2920.89 841.932 2956.08C796.513 2949.59 755.203 2939.02 712 2923.59C712.503 2929.88 713.005 2936.16 713.523 2942.63C716.36 3004.02 710.271 3037.69 668.69 3086.02C629.438 3121.36 594.041 3138.88 544.173 3155.72C473.345 3181.94 436.732 3206.4 400.031 3273.48C395.788 3283.08 391.545 3292.68 387.173 3302.58C372.881 3299 358.588 3295.43 343.863 3291.75C335.56 3198.39 335.56 3198.39 355.917 3161.81C370.932 3144.22 370.932 3144.22 398 3118.5C392.417 3114.26 386.834 3110.01 381.083 3105.64C365.518 3086.02 365.518 3086.02 367.548 3058.27C376.345 3031.88 376.345 3031.88 398 3010.22C412.293 3010.22 426.585 3010.22 441.311 3010.22C439.971 2998.61 438.631 2986.99 437.25 2975.03C441.311 2934.42 441.311 2934.42 469.733 2908.03C508.059 2890.28 529.684 2884.5 571.242 2891.11C581.961 2907.19 581.961 2907.19 592.897 2923.59C567.885 2934.31 542.874 2945.03 517.104 2956.08C520.094 2977.09 520.094 2977.09 527.932 2999.39C558.515 3024.38 558.515 3024.38 593.574 3019.69C625.489 3013.34 625.489 3013.34 640.268 2992.62C649.3 2958.3 648.393 2926.42 647.035 2891.11C560.443 2863.52 477.854 2851.98 387.173 2847.8C397.892 2863.88 397.892 2863.88 408.828 2880.28C415.779 2916.3 418.533 2932.59 408.828 2966.91C386.542 2996.96 362.353 3022.86 335.869 3049.26C300.255 3086.97 280.634 3115.43 274.16 3167.23C279.666 3211.28 292.217 3227.46 322.208 3259.27C325.781 3266.41 329.354 3273.56 333.035 3280.92C325.889 3288.07 318.743 3295.22 311.38 3302.58C293.514 3288.28 275.649 3273.99 257.242 3259.27C253.669 3277.13 250.096 3295 246.414 3313.41C226.789 3307.99 226.789 3307.99 203.104 3291.75C193.727 3269.95 186.819 3248.28 180.434 3225.43C167.388 3198.43 154.677 3194.82 127.311 3183.47C105.276 3179.31 105.276 3179.31 82.3511 3178.14C73.9417 3177.43 65.5322 3176.72 56.8682 3175.98C39.3638 3174.66 21.8533 3173.42 4.3374 3172.26C-49.9307 3167.49 -83.2257 3160.43 -121.724 3118.5C-135.935 3088.72 -135.935 3088.72 -143.379 3064.36C-233.546 3163.58 -233.546 3163.58 -276.017 3285.66C-275.123 3294.82 -274.23 3303.97 -273.31 3313.41C-233.977 3338.58 -200.115 3339.31 -154.206 3335.06C-130.906 3300.11 -130.376 3288.67 -132.551 3248.44C-173.857 3232.55 -200.658 3243.74 -240.827 3259.27C-227.221 3217.31 -215.795 3193.15 -175.862 3172.64C-109.14 3165.62 -109.14 3165.62 -79.09 3188.88C-75.2936 3194.24 -71.4972 3199.6 -67.5857 3205.12C-57.7596 3201.1 -47.9336 3197.09 -37.8098 3192.94C-2.62012 3183.47 -2.62012 3183.47 22.4187 3190.24C40.6902 3205.12 40.6902 3205.12 49.4875 3226.78C51.5178 3248.44 51.5178 3248.44 40.6902 3270.09C53.4194 3268.75 66.1484 3267.41 79.2634 3266.03C128.805 3265.86 152.651 3284.27 188.512 3316.62C204.749 3337.14 209.541 3352.81 213.932 3378.38C203.882 3376.59 193.833 3374.8 183.479 3372.96C88.1343 3360.27 22.0198 3361.46 -63.187 3408.79C-119.583 3436.71 -173.755 3439.51 -233.383 3420.33C-272.148 3403.7 -293.492 3381.55 -316.62 3345.89C-330.913 3385.2 -345.205 3424.5 -359.931 3465C-374.223 3461.43 -388.515 3457.85 -403.241 3454.17C-414.576 3429.43 -414.576 3429.43 -422.189 3399.35C-424.813 3389.4 -427.437 3379.45 -430.141 3369.2C-431.983 3361.51 -433.825 3353.81 -435.724 3345.89C-442.87 3345.89 -450.016 3345.89 -457.379 3345.89C-459.835 3352.37 -462.292 3358.84 -464.823 3365.52C-486.965 3402.42 -513.066 3415.55 -553.812 3427.99C-639.006 3444.5 -707.595 3404.85 -782.206 3367.55C-803.163 3366.49 -824.158 3366.14 -845.142 3366.19C-861.995 3366.15 -861.995 3366.15 -879.189 3366.11C-909.468 3367.43 -936.818 3371.51 -966.275 3378.38C-966.275 3385.52 -966.275 3392.67 -966.275 3400.03C-973.422 3396.46 -980.568 3392.88 -987.931 3389.2C-929.145 3287.77 -929.145 3287.77 -890.482 3270.09C-861.039 3267.65 -833.517 3268.61 -803.862 3270.09C-803.862 3248.65 -803.862 3227.21 -803.862 3205.12C-767.318 3198.36 -767.318 3198.36 -728.068 3194.3C-720.922 3201.44 -713.776 3208.59 -706.413 3215.95C-700.83 3208.81 -695.247 3201.66 -689.495 3194.3C-663.103 3172.64 -663.103 3172.64 -625.883 3167.23C-571.857 3174.81 -548.843 3200.28 -511.517 3237.61C-507.944 3248.33 -504.37 3259.05 -500.689 3270.09C-510.292 3266.74 -519.895 3263.39 -529.788 3259.94C-559.885 3250.29 -588.732 3243.09 -619.793 3237.61C-628.559 3269.17 -632.986 3285.92 -620.469 3316.79C-616.673 3322.82 -612.876 3328.85 -608.965 3335.06C-554.583 3338.26 -523.477 3334.9 -479.034 3302.58C-485.218 3257.06 -500.646 3227.13 -525.728 3188.88C-532.162 3178.94 -538.597 3169.01 -545.226 3158.77C-580.584 3103.68 -580.584 3103.68 -630.62 3064.36C-631.29 3072.4 -631.96 3080.44 -632.65 3088.72C-644.755 3129.7 -659.292 3139.29 -695.586 3161.81C-738.909 3170.83 -782.925 3171.81 -827.018 3174.08C-881.258 3177.62 -881.258 3177.62 -928.294 3202.97C-944.203 3226.17 -953.53 3245.28 -961.538 3272.12C-968.348 3294.92 -968.348 3294.92 -977.103 3313.41C-987.822 3316.98 -998.542 3320.55 -1009.59 3324.23C-1009.59 3302.79 -1009.59 3281.35 -1009.59 3259.27C-1047.1 3280.71 -1047.1 3280.71 -1085.38 3302.58C-1085.38 3270.09 -1085.38 3270.09 -1063.72 3246.41C-1040.55 3213.82 -1034.41 3192.25 -1036.44 3152.21C-1047.38 3107.7 -1077.34 3076.44 -1107.03 3042.7C-1117.21 3030.54 -1127.36 3018.36 -1137.49 3006.16C-1145.3 2996.78 -1153.12 2987.4 -1161.17 2977.73C-1177.51 2945.05 -1173.9 2916.31 -1172 2880.28C-1164.85 2869.56 -1157.71 2858.84 -1150.34 2847.8C-1242.82 2853.27 -1330.88 2870.18 -1421.03 2891.11C-1411.78 2955.91 -1411.78 2955.91 -1380.43 3011.57C-1347.47 3024.39 -1324.87 3018.66 -1291.1 3010.22C-1287.53 2992.35 -1283.96 2974.49 -1280.28 2956.08C-1301.71 2948.93 -1323.15 2941.78 -1345.24 2934.42C-1345.24 2923.7 -1345.24 2912.98 -1345.24 2901.94C-1299.44 2890.95 -1275.98 2888.26 -1232.23 2907.35C-1204.48 2934.42 -1204.48 2934.42 -1200.42 2975.03C-1202.43 2992.45 -1202.43 2992.45 -1204.48 3010.22C-1196 3011.56 -1187.51 3012.9 -1178.77 3014.28C-1150.34 3021.05 -1150.34 3021.05 -1128.69 3042.7C-1127.34 3071.13 -1127.34 3071.13 -1128.69 3096.84C-1135.84 3100.42 -1142.98 3103.99 -1150.34 3107.67C-1138.56 3132.14 -1126.47 3154.22 -1111.09 3176.7C-1093.21 3210.84 -1092.07 3232.03 -1096.21 3270.09C-1103.35 3280.81 -1110.5 3291.53 -1117.86 3302.58C-1128.58 3302.58 -1139.3 3302.58 -1150.34 3302.58C-1152.72 3296.83 -1155.09 3291.08 -1157.53 3285.15C-1199.22 3192.29 -1265.26 3168.05 -1357.13 3133.05C-1417.24 3105.22 -1451.94 3072.57 -1475.17 3010.22C-1479.63 2943.34 -1479.63 2943.34 -1464.34 2912.77C-1510.79 2930.63 -1557.24 2948.5 -1605.1 2966.91C-1599.72 2913.06 -1588.29 2873.37 -1561.79 2826.14C-1568.6 2826.89 -1575.42 2827.65 -1582.43 2828.42C-1648.09 2832.58 -1688.05 2824.89 -1738.54 2781.69C-1769.6 2746.57 -1783.68 2707.12 -1800 2663.72C-1829.38 2594.96 -1850.71 2546.32 -1919.1 2512.12C-1929.82 2508.55 -1940.54 2504.98 -1951.59 2501.3C-1951.59 2490.58 -1951.59 2479.86 -1951.59 2468.81C-1907.4 2446.72 -1879.93 2443.46 -1832.48 2457.98C-1808.68 2474.47 -1788.84 2492.32 -1767.52 2512.12C-1758.47 2503.42 -1758.47 2503.42 -1749.25 2494.53C-1724.21 2479.64 -1724.21 2479.64 -1695.11 2485.05C-1670.07 2501.3 -1670.07 2501.3 -1661.27 2529.72C-1660.6 2538.21 -1659.93 2546.69 -1659.24 2555.44C-1644.84 2553.76 -1644.84 2553.76 -1630.14 2552.05C-1594.28 2555.44 -1594.28 2555.44 -1563.15 2577.77C-1535.04 2616.62 -1535.54 2638.46 -1540.14 2685.38C-1550.86 2688.95 -1561.58 2692.52 -1572.62 2696.2C-1583.34 2674.76 -1594.06 2653.32 -1605.1 2631.23C-1626.41 2631.57 -1626.41 2631.57 -1648.41 2642.06C-1662.54 2674.51 -1662.54 2674.51 -1670.07 2707.03C-1647.76 2735.68 -1647.76 2735.68 -1615.93 2761.17C-1575.76 2765.7 -1575.76 2765.7 -1540.14 2761.17C-1514.33 2675.33 -1498 2590.09 -1486 2501.3C-1502.41 2510.01 -1502.41 2510.01 -1519.16 2518.89C-1553.68 2533.05 -1579.66 2538.05 -1616.27 2525.24C-1657.74 2499.73 -1689.64 2463.15 -1722.73 2427.83C-1751.65 2397.84 -1760.39 2393.71 -1802.03 2389.63C-1852.94 2393.8 -1875.98 2410.11 -1919.1 2436.33C-1926.25 2432.75 -1933.4 2429.18 -1940.76 2425.5C-1930.04 2407.63 -1919.32 2389.77 -1908.28 2371.36C-1926.14 2364.21 -1944.01 2357.07 -1962.41 2349.7C-1962.41 2342.56 -1962.41 2335.41 -1962.41 2328.05C-1955.76 2326.2 -1949.1 2324.36 -1942.24 2322.46C-1887.85 2306.96 -1887.85 2306.96 -1843.31 2273.91C-1817.03 2221.35 -1819.01 2168.68 -1818.91 2111.27C-1817.41 2069.01 -1812.57 2048.7 -1785.96 2015.3C-1761.97 1996.51 -1741.44 1982.15 -1713.38 1970.72C-1828.14 1867.65 -1828.14 1867.65 -1973.24 1840.78C-1975.66 1856.1 -1977.88 1871.44 -1980.01 1886.8C-1981.26 1895.34 -1982.52 1903.89 -1983.81 1912.69C-1984.1 1941.72 -1977.2 1956.93 -1962.41 1981.55C-1937.4 1981.55 -1912.39 1981.55 -1886.62 1981.55C-1884.81 1955.38 -1884.81 1955.38 -1886.62 1927.41C-1893.77 1920.26 -1900.91 1913.11 -1908.28 1905.75C-1904.7 1895.03 -1901.13 1884.31 -1897.45 1873.27C-1868.98 1889.75 -1845 1904.06 -1821.65 1927.41C-1819.54 1950.84 -1819.54 1950.84 -1820.3 1977.49C-1820.5 1986.34 -1820.69 1995.19 -1820.89 2004.3C-1821.14 2011.09 -1821.4 2017.87 -1821.65 2024.86C-1843.09 2035.58 -1843.09 2035.58 -1864.96 2046.52C-1859.38 2052.55 -1853.8 2058.58 -1848.05 2064.79C-1832.48 2089.83 -1832.48 2089.83 -1833.16 2118.25C-1843.31 2143.97 -1843.31 2143.97 -1863.61 2158.86C-1886.62 2165.62 -1886.62 2165.62 -1919.1 2154.8C-1917.97 2165.58 -1917.97 2165.58 -1916.82 2176.58C-1912.14 2252.93 -1912.14 2252.93 -1932.05 2281.94C-1960.72 2306.3 -1989.75 2323.7 -2027.38 2328.05C-2025.82 2319.11 -2024.25 2310.18 -2022.64 2300.98C-2020.63 2288.47 -2018.62 2275.96 -2016.55 2263.08C-2013.65 2249.68 -2010.74 2236.28 -2007.75 2222.47C-2000.62 2164.95 -2025.4 2119.38 -2049.03 2068.17C-2078.02 2004.62 -2087.41 1964.05 -2070.69 1894.92C-2048.63 1855.95 -2026.62 1829.19 -1994.9 1797.47C-2030.63 1783.18 -2066.36 1768.88 -2103.17 1754.16C-2103.17 1743.44 -2103.17 1732.72 -2103.17 1721.67C-2087.4 1714.4 -2071.61 1707.2 -2055.8 1700.02C-2047.01 1696 -2038.21 1691.98 -2029.16 1687.83C-2005.72 1678.36 -2005.72 1678.36 -1984.07 1678.36C-1984.07 1671.21 -1984.07 1664.07 -1984.07 1656.7C-1990.54 1653.8 -1997.02 1650.9 -2003.69 1647.91C-2041.57 1627.34 -2056.98 1611.22 -2070.69 1570.08C-2080.75 1497.01 -2070.9 1445.04 -2037.53 1379.23C-2006.12 1317.07 -1999.39 1279.52 -2016.55 1212.75C-2018.56 1200.02 -2020.57 1187.29 -2022.64 1174.17C-2024.2 1165.46 -2025.77 1156.76 -2027.38 1147.78C-1991.08 1150.89 -1972.81 1158.91 -1942.79 1180.27C-1910.78 1224.17 -1913.95 1257.64 -1919.1 1310.2C-1881.59 1315.56 -1881.59 1315.56 -1843.31 1321.03C-1834.54 1352.59 -1830.12 1369.34 -1842.63 1400.21C-1846.43 1406.24 -1850.23 1412.27 -1854.14 1418.48C-1846.77 1426.08 -1839.4 1433.67 -1831.81 1441.49C-1810.83 1472.62 -1810.83 1472.62 -1810.83 1505.79C-1823.05 1541.71 -1835.44 1557.46 -1864.96 1580.91C-1875.68 1584.48 -1886.4 1588.05 -1897.45 1591.73C-1897.45 1552.64 -1887.04 1520.72 -1875.79 1483.45C-1913.9 1479.99 -1934.48 1479.43 -1967.15 1500.37C-1987.72 1526.96 -1987.72 1526.96 -1982.71 1565.34C-1975.19 1603.54 -1975.19 1603.54 -1951.59 1635.05C-1856.56 1624.41 -1775.63 1565.12 -1713.38 1494.28C-1723.43 1489.81 -1733.48 1485.35 -1743.83 1480.75C-1779.11 1461.38 -1791.39 1452.75 -1810.83 1418.48C-1815.23 1381.39 -1815.23 1381.39 -1816.24 1339.3C-1818.53 1254.55 -1818.53 1254.55 -1854.14 1180.27C-1889.08 1161.55 -1924.52 1148.4 -1962.41 1136.95C-1962.41 1129.81 -1962.41 1122.66 -1962.41 1115.3C-1935.61 1104.58 -1935.61 1104.58 -1908.28 1093.64C-1922.57 1079.35 -1936.86 1065.05 -1951.59 1050.33C-1932.64 1042.88 -1932.64 1042.88 -1908.28 1039.5C-1902.25 1044.64 -1896.22 1049.77 -1890 1055.07C-1856.91 1077.43 -1832.7 1079.16 -1793.23 1077.99C-1744.8 1066.68 -1714.56 1030.97 -1680.9 996.188C-1639.08 955.445 -1608.36 946.752 -1551.9 940.778C-1529.31 942.047 -1529.31 942.047 -1496.83 963.703C-1495.23 909.666 -1500.48 862.086 -1512.39 809.402C-1515.28 796.393 -1518.17 783.384 -1521.15 769.981C-1528.83 736.244 -1528.83 736.244 -1540.14 703.828C-1584.85 701.748 -1620.64 701.219 -1659.24 725.484C-1671.19 764.732 -1672.68 794.944 -1659.24 833.766C-1637.8 833.766 -1616.36 833.766 -1594.28 833.766C-1590.7 812.326 -1587.13 790.886 -1583.45 768.797C-1569.16 772.37 -1554.86 775.943 -1540.14 779.625C-1534.87 858.641 -1534.87 858.641 -1558.41 892.644C-1585.85 911.189 -1604.68 917.793 -1637.59 920.391C-1648.3 915.031 -1648.3 915.031 -1659.24 909.562C-1658.79 918.049 -1658.35 926.536 -1657.89 935.279C-1659.24 963.703 -1659.24 963.703 -1680.9 985.359C-1720.07 989.483 -1744.61 983.697 -1778.34 963.703C-1786.83 970.626 -1795.32 977.55 -1804.06 984.683C-1848.5 1019.6 -1873.52 1019.86 -1929.93 1017.84C-1937.08 1014.27 -1944.22 1010.7 -1951.59 1007.02C-1951.59 996.296 -1951.59 985.576 -1951.59 974.531C-1941.79 970.176 -1941.79 970.176 -1931.79 965.733C-1864.42 932.696 -1836.1 903.848 -1810.83 833.766C-1807.83 824.86 -1804.83 815.955 -1801.73 806.78C-1776.69 736.066 -1745.95 689.453 -1680.9 649.688C-1633.01 636.918 -1610 637.634 -1561.79 649.688C-1579.66 603.235 -1597.52 556.782 -1615.93 508.922C-1558.95 518.419 -1525.72 528.979 -1475.17 552.234C-1475.67 546.079 -1476.18 539.923 -1476.69 533.581C-1479.04 483.476 -1478.13 440.212 -1449.75 396.58C-1403.03 350.629 -1335.02 325.717 -1274.06 304.16C-1200.01 277.131 -1173.42 232.096 -1139.52 162.422C-1128.8 165.995 -1118.08 169.568 -1107.03 173.25C-1092.43 251.572 -1092.43 251.572 -1109.74 289.652C-1119.12 301.712 -1119.12 301.712 -1128.69 314.016C-1134.72 322.279 -1140.75 330.542 -1146.96 339.056C-1151.65 345.086 -1156.34 351.115 -1161.17 357.328C-1145.09 368.048 -1145.09 368.048 -1128.69 378.984C-1125.31 406.055 -1125.31 406.055 -1128.69 433.125C-1150.34 454.781 -1150.34 454.781 -1178.77 456.135C-1187.25 455.688 -1195.74 455.241 -1204.48 454.781C-1203.37 466.394 -1202.25 478.008 -1201.1 489.973C-1204.48 530.578 -1204.48 530.578 -1226.14 556.972C-1269.36 579.487 -1296.96 577.164 -1345.24 573.891C-1348.81 563.171 -1352.39 552.451 -1356.07 541.406C-1331.06 534.26 -1306.04 527.113 -1280.28 519.75C-1280.28 498.31 -1280.28 476.871 -1280.28 454.781C-1337.54 449.157 -1337.54 449.157 -1387.87 469.67C-1411.5 505.801 -1411.14 530.978 -1410.21 573.891C-1323.72 600.684 -1241.1 623.849 -1150.34 628.031C-1153.79 621.611 -1157.24 615.19 -1160.79 608.574C-1178.06 571.816 -1178.05 549.24 -1172 508.922C-1145.47 470.395 -1112.31 438.199 -1079.12 405.42C-1050.13 374.677 -1042.03 357.056 -1035.98 314.692C-1038.75 266.55 -1060.37 235.249 -1085.38 194.906C-1081.81 187.76 -1078.23 180.613 -1074.55 173.25C-1056.69 183.97 -1038.82 194.69 -1020.41 205.734C-1013.27 191.441 -1006.12 177.148 -998.758 162.422C-988.039 165.995 -977.319 169.568 -966.275 173.25C-957.267 194.51 -951.909 215.805 -946.1 238.134C-927.095 271.706 -904.413 278.926 -868.827 292.359C-827.712 296.533 -787.308 297.101 -746.002 297.731C-700.16 304.049 -676.707 316.938 -641.448 346.5C-631.974 381.691 -631.974 381.691 -630.62 411.469C-568.516 355.007 -512.238 283.269 -479.034 205.734C-479.858 182.584 -479.858 182.584 -489.862 162.422C-534.085 132.938 -556.407 136.594 -608.965 140.766C-633.762 177.962 -632.552 194.747 -630.62 238.219C-598.462 231.072 -566.304 223.926 -533.172 216.562C-529.599 223.709 -526.026 230.856 -522.344 238.219C-568.113 289.221 -568.113 289.221 -603.551 302.511C-636.102 303.325 -655.917 296.342 -684.758 281.531C-695.477 270.811 -695.477 270.811 -706.413 259.875C-713.559 267.022 -720.706 274.168 -728.068 281.531C-755.137 284.238 -755.137 284.238 -782.206 281.531C-803.862 259.875 -803.862 259.875 -805.215 226.037C-804.768 215.764 -804.322 205.491 -803.862 194.906C-813.241 197.363 -822.62 199.82 -832.284 202.351C-877.233 206.513 -896.193 197.482 -933.793 173.25C-964.986 141.015 -966.275 133.53 -966.275 86.625C-955.556 90.1983 -944.837 93.7716 -933.793 97.4531C-843.339 121.911 -792.895 105.273 -708.821 66.6421C-639.924 35.9651 -590.16 30.4017 -519.637 56.1709C-487.193 77.5561 -461.971 101.373 -435.724 129.938C-434.049 118.883 -434.049 118.883 -432.34 107.604C-423.302 68.9843 -408.712 36.1419 -392.413 0ZM203.104 119.109C198.191 127.596 193.278 136.082 188.216 144.826C147.931 185.113 106.593 187.864 51.5178 194.906C50.178 201.383 48.8379 207.859 47.4575 214.532C40.6902 238.219 40.6902 238.219 19.0349 270.703C-21.2764 275.871 -32.8499 272.205 -67.5857 249.047C-73.1687 256.417 -78.7516 263.787 -84.5038 271.38C-110.896 292.359 -110.896 292.359 -149.469 291.683C-184.866 282.028 -198.297 278.041 -219.172 249.047C-222.745 241.9 -226.318 234.754 -230 227.391C-223.091 228.298 -216.182 229.205 -209.063 230.14C-200.117 231.243 -191.17 232.345 -181.952 233.481C-173.033 234.612 -164.115 235.743 -154.925 236.908C-147.542 237.34 -140.158 237.773 -132.551 238.219C-118.262 226.251 -118.262 226.251 -119.017 196.26C-119.367 163.591 -119.367 163.591 -132.551 142.119C-167.391 122.521 -202.483 122.85 -240.827 129.938C-272.956 149.824 -272.956 149.824 -294.965 173.25C-280.538 222.824 -260.698 261.673 -232.03 304.541C-224.814 315.512 -217.598 326.483 -210.163 337.787C-186.831 367.972 -163.262 389.065 -132.551 411.469C-126.187 396.394 -126.187 396.394 -119.693 381.015C-97.5787 342.121 -85.8857 332.681 -45.9304 314.016C-7.39941 309.617 -7.39941 309.617 34.5996 308.602C92.1848 307.207 132.567 302.547 181.449 270.703C195.779 250.035 195.779 250.035 201.75 226.714C204.179 219.218 206.608 211.723 209.11 204C214.781 183.986 214.781 183.986 213.932 162.422C221.078 158.849 228.224 155.275 235.587 151.594C228.44 151.594 221.294 151.594 213.932 151.594C208.572 135.514 208.572 135.514 203.104 119.109ZM-381.586 205.734C-387.113 217.389 -392.64 229.044 -398.335 241.053C-443.411 332.75 -490.34 408.399 -562.128 481.288C-636.267 556.95 -708.868 650.84 -710.474 760.676C-708.902 843.952 -678.008 914.649 -619.793 974.531C-595.135 993.758 -569.974 1011.19 -544 1028.67C-529.999 1004.32 -516.016 979.952 -502.043 955.582C-496.118 945.281 -496.118 945.281 -490.073 934.772C-479.085 915.592 -468.228 896.337 -457.379 877.078C-452.857 869.094 -448.334 861.11 -443.675 852.884C-429.711 819.309 -437.969 792.3 -446.551 757.969C-462.359 729.521 -462.359 729.521 -489.862 714.656C-529.862 716.239 -529.862 716.239 -565.655 725.484C-565.655 746.924 -565.655 768.364 -565.655 790.453C-547.789 797.6 -529.924 804.746 -511.517 812.109C-511.517 822.829 -511.517 833.549 -511.517 844.594C-525.316 839.972 -539.067 835.206 -552.797 830.382C-560.459 827.744 -568.122 825.106 -576.017 822.388C-608.17 807.448 -625.674 789.519 -641.448 757.969C-647.729 690.128 -647.729 690.128 -621.146 656.455C-576.253 622.123 -545.164 627.139 -489.862 628.031C-489.052 620.033 -488.242 612.035 -487.408 603.795C-476.507 519.675 -454.678 447.653 -403.241 378.984C-379.471 364.857 -379.471 364.857 -359.931 357.328C-352.712 371.766 -345.494 386.203 -338.275 400.641C-334.702 407.564 -331.129 414.487 -327.448 421.62C-294.963 488.623 -282.767 554.486 -273.31 628.031C-266.903 627.403 -260.497 626.775 -253.896 626.128C-207.097 623.456 -182.906 623.431 -142.702 649.688C-119.456 685.683 -113.578 705.782 -116.521 747.86C-125.882 785.533 -144.805 801.131 -175.862 822.938C-217.142 831.735 -217.142 831.735 -251.655 833.766C-242.945 827.736 -234.236 821.706 -225.262 815.493C-195.877 792.949 -195.877 792.949 -187.366 762.029C-187.143 753.543 -186.919 745.056 -186.689 736.312C-207.038 711.427 -207.038 711.427 -240.15 711.272C-272.65 711.821 -272.65 711.821 -292.258 728.191C-321.688 769.172 -321.688 769.172 -325.629 818.75C-313.898 866.504 -292.073 904.009 -267.219 946.107C-262.62 954.078 -258.021 962.048 -253.283 970.259C-242.001 989.782 -230.599 1009.23 -219.172 1028.67C-143.72 978.39 -86.0615 921.68 -56.7581 833.766C-46.3176 727.417 -57.6534 649.813 -126.054 566.187C-149.94 538.152 -174.257 510.527 -198.791 483.057C-273.374 399.187 -329.253 310.146 -370.758 205.734C-374.331 205.734 -377.904 205.734 -381.586 205.734ZM-965.599 389.812C-984.823 426.001 -973.406 458.551 -966.275 498.094C-996.655 518.348 -1008.64 522.747 -1042.75 528.548C-1065.5 533.204 -1065.5 533.204 -1085.38 541.406C-1103.81 567.12 -1103.81 567.12 -1107.03 595.547C-1103.46 602.693 -1099.89 609.84 -1096.21 617.203C-1074.48 606.386 -1052.8 595.496 -1031.24 584.338C-1024.09 580.667 -1016.95 576.996 -1009.59 573.214C-998.866 567.666 -998.866 567.666 -987.931 562.005C-966.275 552.234 -966.275 552.234 -922.965 541.406C-922.965 509.247 -922.965 477.087 -922.965 443.953C-912.246 443.953 -901.526 443.953 -890.482 443.953C-879.655 465.609 -868.827 487.266 -858 508.922C-819.941 494.146 -819.941 494.146 -783.56 475.761C-751.44 461.59 -719.435 458.783 -684.758 454.781C-684.758 440.488 -684.758 426.195 -684.758 411.469C-690.118 406.109 -690.118 406.109 -695.586 400.641C-748.72 404.224 -748.72 404.224 -794.387 429.064C-814.689 443.953 -814.689 443.953 -844.465 440.569C-852.505 438.113 -860.544 435.656 -868.827 433.125C-872.4 415.259 -875.973 397.392 -879.655 378.984C-924.19 375.767 -924.19 375.767 -965.599 389.812ZM116.483 378.984C112.91 396.851 109.337 414.717 105.656 433.125C81.9705 441.246 81.9705 441.246 51.5178 443.953C33.4265 429.572 15.3828 415.132 -2.62012 400.641C-37.3745 397.012 -37.3745 397.012 -67.5857 400.641C-74.7319 414.934 -81.8781 429.227 -89.2408 443.953C-67.4735 465.721 -27.1721 464.115 2.32837 468.909C29.8625 476.438 29.8625 476.438 52.998 494.118C59.6558 499.003 66.3135 503.888 73.1729 508.922C113.172 495.588 131.112 474.186 159.794 443.953C159.794 476.113 159.794 508.272 159.794 541.406C168.015 544.156 176.236 546.906 184.706 549.739C195.467 553.466 206.228 557.192 217.315 561.032C233.331 566.497 233.331 566.497 249.671 572.072C277.868 584.273 290.897 595.207 311.38 617.203C318.526 617.203 325.672 617.203 333.035 617.203C341.367 591.807 341.367 591.807 343.863 563.062C320.518 531.73 298.208 524.801 260.625 517.72C251.874 516.003 243.123 514.286 234.106 512.517C224.12 510.737 224.12 510.737 213.932 508.922C207.164 477.791 207.164 477.791 203.104 443.953C210.25 436.807 217.396 429.66 224.759 422.297C213.741 399.138 213.741 399.138 192.276 378.984C153.02 375.37 153.02 375.37 116.483 378.984ZM-392.413 476.438C-423.916 545.696 -423.698 620.966 -404.594 694.354C-395.926 726.751 -395.926 726.751 -370.758 736.312C-351.914 687.405 -346.17 646.516 -346.396 594.193C-346.34 581.212 -346.284 568.231 -346.227 554.857C-348.911 522.092 -353.54 503.906 -370.758 476.438C-377.904 476.438 -385.051 476.438 -392.413 476.438ZM-778.188 568.815C-785.097 575.85 -792.006 582.885 -799.125 590.133C-833.505 621.498 -853.147 633.003 -899.956 631.415C-907.968 630.48 -915.979 629.545 -924.234 628.581C-930.961 628.4 -937.689 628.218 -944.62 628.031C-951.766 635.178 -958.913 642.324 -966.275 649.688C-941.488 662.373 -916.672 674.997 -891.836 687.586C-884.787 691.201 -877.739 694.816 -870.477 698.541C-833.611 718.646 -833.611 718.646 -793.034 725.484C-790.94 718.422 -788.847 711.359 -786.69 704.082C-771.526 653.183 -756.089 602.494 -738.896 552.234C-761.956 549.762 -761.956 549.762 -778.188 568.815ZM-24.2754 552.234C-5.64478 611.234 17.3789 668.222 40.6902 725.484C59.6431 716.922 78.5903 708.348 97.5349 699.768C108.087 694.994 118.639 690.22 129.51 685.302C154.305 673.873 178.781 662.081 203.104 649.688C176.185 622.767 167.651 626.003 130.695 625.324C75.9553 621.284 50.1323 604.751 12.2678 566.066C-1.87769 549.778 -1.87769 549.778 -24.2754 552.234ZM-1464.34 649.688C-1462.25 656.625 -1460.16 663.562 -1458 670.709C-1455.18 680.075 -1452.36 689.441 -1449.46 699.091C-1446.69 708.261 -1443.93 717.432 -1441.08 726.88C-1438.04 737.139 -1435 747.399 -1431.86 757.969C-1428.13 769.191 -1424.41 780.413 -1420.57 791.976C-1407.13 846.169 -1403.83 899.327 -1400.06 954.905C-1389.17 1144.11 -1389.17 1144.11 -1291.1 1299.38C-1203.54 1368.78 -1104.33 1359.03 -998.758 1353.52C-1005.31 1320.76 -1012.5 1288.5 -1020.41 1256.06C-1023.07 1244.88 -1025.72 1233.7 -1028.45 1222.18C-1048.97 1145.61 -1048.97 1145.61 -1105.68 1094.32C-1142.22 1080.43 -1149.22 1082.41 -1188.24 1096.35C-1197.17 1102.6 -1206.11 1108.85 -1215.31 1115.3C-1215.77 1136.95 -1215.75 1158.61 -1215.31 1180.27C-1203.28 1194.74 -1203.28 1194.74 -1172.68 1192.45C-1140.43 1193.4 -1140.43 1193.4 -1117.86 1180.27C-1128.69 1212.75 -1128.69 1212.75 -1151.02 1226.29C-1199.25 1238.6 -1246.11 1237.13 -1290.43 1211.4C-1308.67 1179.19 -1311.49 1152.07 -1312.76 1115.3C-1295.29 1074.84 -1273.58 1052.66 -1236.96 1028.67C-1246.79 1018.62 -1256.62 1008.57 -1266.74 998.218C-1324.5 930.897 -1348.32 845.126 -1356.07 757.969C-1247.61 771.552 -1168.18 804.956 -1085.38 877.078C-1077.56 866.582 -1069.75 856.085 -1061.69 845.271C-1042.82 822.964 -1032.63 812.732 -1005.53 800.604C-964.636 801.578 -936.964 814.256 -901.31 833.766C-874.75 867.256 -875.404 900.392 -879.655 942.047C-894.543 973.178 -894.543 973.178 -912.137 996.188C-919.284 996.188 -926.43 996.188 -933.793 996.188C-930.778 978.098 -930.778 978.098 -927.702 959.643C-919.535 922.278 -919.535 922.278 -933.793 898.734C-972.864 895.274 -972.864 895.274 -1006.88 912.27C-1023.01 934.859 -1029.65 946.615 -1031.24 974.531C-1012.11 1026.61 -993.059 1046.78 -944.62 1071.98C-921.174 1080.57 -897.462 1088.44 -873.564 1095.67C-861.491 1099.4 -849.418 1103.12 -836.979 1106.96C-802.553 1117.06 -802.553 1117.06 -760.551 1115.3C-756.064 987.645 -760.072 901.667 -842.815 799.759C-924.395 736.615 -1020.24 728.253 -1119.89 720.07C-1240.72 708.535 -1349.29 688.039 -1464.34 649.688ZM637.561 669.99C557.123 699.093 480.274 712.706 395.082 719.224C384.688 720.046 374.294 720.868 363.585 721.715C342.787 723.29 321.975 724.697 301.152 725.913C218.428 732.007 149.567 750.951 86.0308 806.019C78.2146 815.175 70.3984 824.332 62.3455 833.766C54.5293 842.252 46.7131 850.739 38.6599 859.482C-10.5469 930.751 -8.0979 1009.69 -2.62012 1093.64C0.952881 1100.79 4.52612 1107.93 8.20752 1115.3C139.031 1099.07 139.031 1099.07 247.091 1036.12C258.547 1003.27 267.326 977.01 268.07 942.047C252.045 914.29 252.045 914.29 224.759 898.734C195.448 900.253 195.448 900.253 170.621 909.562C161.854 941.125 157.428 957.868 169.945 988.743C173.741 994.773 177.537 1000.8 181.449 1007.02C148.966 996.188 148.966 996.188 130.018 967.764C113.737 923.802 114.823 900.382 127.311 855.422C148.683 826.415 163.198 814.774 197.013 802.635C231.435 800.956 248.659 806.306 278.897 822.938C309.35 851.361 309.35 851.361 333.035 877.078C343.308 867.252 353.58 857.425 364.164 847.301C420.081 799.531 487.096 766.392 561.768 766.09C572.041 766.983 582.313 767.876 592.897 768.797C589.417 874.955 544.575 960.548 473.794 1039.5C484.29 1042.18 494.786 1044.86 505.6 1047.62C538.759 1061.16 538.759 1061.16 548.233 1079.43C548.68 1087.69 549.126 1095.96 549.587 1104.47C551.262 1123.23 551.262 1123.23 552.97 1142.37C549.587 1180.27 549.587 1180.27 532.669 1205.98C497.193 1229.63 473.102 1233.68 430.483 1234.41C403.142 1226 380.347 1215.01 354.69 1201.92C354.69 1194.78 354.69 1187.63 354.69 1180.27C383.275 1183.84 411.86 1187.41 441.311 1191.09C455.283 1166.56 455.283 1166.56 462.966 1136.95C449.503 1110.03 438.007 1097.67 411.535 1083.49C371.517 1082.38 345.88 1095.85 311.38 1115.3C281.42 1164.61 268.12 1215.4 255.212 1270.95C253.292 1278.92 251.374 1286.89 249.396 1295.1C244.722 1314.56 240.145 1334.03 235.587 1353.52C266.276 1354.7 296.92 1355.55 327.621 1356.22C336.191 1356.59 344.761 1356.95 353.591 1357.32C425.681 1358.5 481.036 1341.31 536.168 1293.76C628.14 1202.27 630.048 1070.7 638.478 949.266C645.22 859.309 663.274 778.907 690.345 693C694.082 678.595 697.755 664.171 701.173 649.688C679.44 649.688 657.453 662.27 637.561 669.99ZM-1269.45 844.594C-1259.62 916.281 -1215.51 960.375 -1159.31 1003.34C-1128.82 1023.41 -1128.82 1023.41 -1096.21 1039.5C-1089.06 1035.93 -1081.91 1032.35 -1074.55 1028.67C-1111.65 959.909 -1147.72 897.706 -1215.31 855.422C-1245.17 845.217 -1245.17 845.217 -1269.45 844.594ZM387.173 909.562C362.052 940.146 338.651 970.894 322.208 1007.02C325.781 1017.74 329.354 1028.46 333.035 1039.5C414.296 994.529 475.914 951.589 517.104 866.25C517.104 859.103 517.104 851.957 517.104 844.594C457.132 844.594 429.913 869.354 387.173 909.562ZM-392.413 931.219C-417.425 981.245 -442.437 1031.27 -468.206 1082.81C-432.233 1113.12 -432.233 1113.12 -392.413 1136.95C-351.568 1129.88 -329.402 1116.6 -294.965 1093.64C-311.698 1034.31 -339.958 984.122 -370.758 931.219C-377.904 931.219 -385.051 931.219 -392.413 931.219ZM-1583.45 1039.5C-1586.97 1055.63 -1589.83 1071.9 -1592.25 1088.23C-1601.72 1134.55 -1601.72 1134.55 -1630.82 1155.23C-1662.99 1159.06 -1675.94 1154.7 -1702.55 1136.95C-1720.15 1149.09 -1720.15 1149.09 -1735.03 1169.44C-1737.75 1203.28 -1737.75 1203.28 -1735.03 1234.41C-1717.17 1237.98 -1699.3 1241.55 -1680.9 1245.23C-1676.02 1307.42 -1685.71 1327.98 -1724.21 1375.17C-1722.78 1404.96 -1722.78 1404.96 -1713.38 1429.31C-1699.09 1432.89 -1684.79 1436.46 -1670.07 1440.14C-1667.19 1430.36 -1664.32 1420.57 -1661.36 1410.49C-1657.53 1397.72 -1653.71 1384.95 -1649.77 1371.79C-1646 1359.1 -1642.23 1346.41 -1638.35 1333.34C-1626.76 1299.38 -1626.76 1299.38 -1605.1 1266.89C-1613.81 1260.41 -1622.52 1253.94 -1631.5 1247.26C-1659.24 1223.58 -1659.24 1223.58 -1670.07 1191.09C-1641.48 1194.67 -1612.9 1198.24 -1583.45 1201.92C-1579.92 1193.04 -1576.39 1184.17 -1572.75 1175.02C-1568.02 1163.35 -1563.28 1151.68 -1558.41 1139.66C-1553.76 1128.1 -1549.11 1116.55 -1544.32 1104.64C-1530.98 1075.61 -1517.1 1053.16 -1496.83 1028.67C-1508.23 1014.92 -1508.23 1014.92 -1534.05 1015.81C-1563.6 1014.94 -1563.6 1014.94 -1583.45 1039.5ZM744.483 1017.84C740.97 1051.25 740.97 1051.25 764.108 1073.34C794.553 1113.35 806.511 1154.05 820.276 1201.92C863.154 1196.56 863.154 1196.56 906.897 1191.09C877.121 1243.88 877.121 1243.88 852.759 1256.06C859.658 1285.85 868.576 1313.6 879.828 1342.01C892.279 1374.51 901.504 1405.62 906.897 1440.14C928.336 1434.78 928.336 1434.78 950.208 1429.31C959.611 1404.96 959.611 1404.96 961.035 1375.17C946.655 1357.08 932.215 1339.04 917.725 1321.03C915.018 1285.16 915.018 1285.16 917.725 1256.06C926.434 1253.83 935.144 1251.6 944.117 1249.29C953.273 1244.38 962.429 1239.47 971.863 1234.41C981.589 1201.35 981.589 1201.35 982.69 1169.44C955.892 1153.36 955.892 1153.36 928.552 1136.95C924.979 1140.53 921.406 1144.1 917.725 1147.78C892.464 1148.22 867.192 1148.24 841.932 1147.78C839.964 1136.43 839.964 1136.43 837.956 1124.86C836.141 1115 834.327 1105.15 832.458 1094.99C830.699 1085.2 828.94 1075.4 827.128 1065.3C822.112 1037.71 822.112 1037.71 798.621 1017.84C770.648 1016.04 770.648 1016.04 744.483 1017.84ZM-673.931 1039.5C-674.154 1057.14 -674.377 1074.79 -674.607 1092.96C-674.733 1102.89 -674.858 1112.81 -674.988 1123.04C-676.74 1147.41 -676.74 1147.41 -663.103 1158.61C-645.062 1159.05 -627.005 1159.07 -608.965 1158.61C-601.819 1140.74 -594.673 1122.88 -587.31 1104.47C-615.895 1083.03 -644.479 1061.59 -673.931 1039.5ZM-139.995 1074.01C-168.336 1101.73 -168.336 1101.73 -164.357 1134.25C-156.589 1160.37 -156.589 1160.37 -132.551 1169.44C-118.259 1162.29 -103.966 1155.14 -89.2408 1147.78C-89.2408 1115.62 -89.2408 1083.46 -89.2408 1050.33C-114.35 1048.05 -114.35 1048.05 -139.995 1074.01ZM-1475.17 1147.78C-1489.49 1176.42 -1487.05 1198.43 -1486.68 1230.35C-1486.58 1241.21 -1486.48 1252.06 -1486.38 1263.25C-1486.25 1271.6 -1486.13 1279.95 -1486 1288.55C-1492.64 1291.31 -1499.29 1294.07 -1506.13 1296.92C-1532.3 1311.92 -1539.97 1323.03 -1553.67 1349.46C-1563.05 1367.54 -1563.05 1367.54 -1572.62 1386C-1565.1 1382.9 -1557.57 1379.8 -1549.82 1376.61C-1516.9 1363.72 -1483.71 1352.4 -1450.13 1341.33C-1438.56 1337.51 -1426.99 1333.68 -1415.07 1329.74C-1406.32 1326.87 -1397.57 1323.99 -1388.55 1321.03C-1392.21 1313.06 -1395.86 1305.09 -1399.63 1296.88C-1404.46 1286.31 -1409.29 1275.75 -1414.27 1264.86C-1419.04 1254.43 -1423.81 1244.01 -1428.73 1233.26C-1441.32 1205 -1453.08 1176.59 -1464.34 1147.78C-1467.92 1147.78 -1471.49 1147.78 -1475.17 1147.78ZM701.173 1147.78C696.609 1158.47 692.045 1169.17 687.342 1180.18C681.351 1194.2 675.359 1208.21 669.367 1222.22C666.359 1229.27 663.351 1236.32 660.252 1243.58C637.434 1296.92 637.434 1296.92 625.38 1321.03C646.126 1328.04 666.88 1335.03 687.638 1342.01C699.195 1345.91 710.752 1349.8 722.659 1353.81C747.919 1361.96 772.784 1369.21 798.621 1375.17C787.994 1343.29 781.439 1324.56 754.634 1303.44C724.354 1266.32 727.401 1231.01 725.789 1184.2C724.323 1171.53 724.323 1171.53 722.828 1158.61C715.682 1155.04 708.536 1151.46 701.173 1147.78ZM-955.448 1158.61C-950.55 1179.38 -945.571 1200.13 -940.56 1220.87C-937.796 1232.43 -935.033 1243.99 -932.185 1255.89C-924.315 1283.77 -915.357 1306.69 -901.31 1331.86C-867.478 1334.17 -842.684 1334.6 -811.306 1321.03C-783.01 1287.49 -785.045 1256.04 -782.206 1212.75C-839.098 1186.12 -893.824 1170.49 -955.448 1158.61ZM-511.517 1169.44C-529.382 1198.02 -547.248 1226.61 -565.655 1256.06C-608.532 1252.49 -651.409 1248.92 -695.586 1245.23C-698.042 1265.78 -700.499 1286.33 -703.03 1307.5C-711.489 1343.36 -711.489 1343.36 -728.068 1375.17C-773.192 1399.79 -818.343 1410.13 -868.827 1418.48C-865.254 1461.36 -861.681 1504.24 -858 1548.42C-900.877 1575.22 -900.877 1575.22 -944.62 1602.56C-932.989 1632.98 -920.702 1660.73 -904.693 1689.19C-888.274 1726.72 -887.427 1737.86 -901.31 1775.81C-915.136 1801.46 -929.906 1826.45 -944.62 1851.61C-944.62 1858.76 -944.62 1865.9 -944.62 1873.27C-932.561 1880.41 -920.502 1887.56 -908.077 1894.92C-897.902 1900.95 -897.902 1900.95 -887.522 1907.1C-869.101 1918.21 -869.101 1918.21 -847.172 1916.58C-855.631 1948.3 -855.631 1948.3 -864.09 1980.02C-870.272 2006.33 -870.272 2006.33 -868.827 2046.52C-859.824 2048.51 -850.822 2050.51 -841.547 2052.56C-746.727 2077.87 -746.727 2077.87 -723.797 2112.88C-716.179 2137.61 -711.327 2161.91 -706.413 2187.28C-699.64 2201.93 -692.537 2216.45 -684.758 2230.59C-673.146 2227.02 -661.533 2223.45 -649.568 2219.77C-608.965 2208.94 -608.965 2208.94 -565.655 2208.94C-551.362 2237.52 -537.07 2266.11 -522.344 2295.56C-485.529 2291.1 -461.425 2281.14 -430.987 2261.05C-392.413 2241.42 -392.413 2241.42 -358.577 2247.51C-327.448 2263.08 -327.448 2263.08 -298.349 2280.67C-273.512 2298.33 -273.512 2298.33 -240.827 2295.56C-224.916 2276.43 -224.916 2276.43 -211.728 2252.25C-203.465 2237.96 -195.202 2223.66 -186.689 2208.94C-127.733 2219.66 -127.733 2219.66 -67.5857 2230.59C-66.0923 2220.93 -64.5988 2211.28 -63.0601 2201.32C-54.0789 2159.93 -44.886 2126.97 -24.2754 2089.83C20.9517 2064.73 65.6006 2054.38 116.483 2046.52C105.764 2003.64 95.0447 1960.76 84.0005 1916.58C101.866 1909.43 119.731 1902.29 138.138 1894.92C152.653 1887.86 167.12 1880.7 181.449 1873.27C176.152 1840.16 166.012 1822.63 147.613 1793.41C131.012 1764.99 127.311 1755.2 127.311 1721C139.964 1683.82 158.205 1655.71 181.449 1624.22C169.16 1588.58 159.871 1580.95 125.958 1561.96C115.685 1557.49 105.412 1553.02 94.8281 1548.42C100.263 1508.04 106.111 1468.71 116.483 1429.31C110.077 1427.34 103.67 1425.38 97.0698 1423.35C70.8606 1415.01 44.9556 1406.02 19.0349 1396.83C8.76245 1393.25 -1.51025 1389.68 -12.0942 1386C-51.9922 1348.45 -55.8689 1297.65 -67.5857 1245.23C-110.463 1248.81 -153.34 1252.38 -197.517 1256.06C-211.809 1227.48 -226.102 1198.89 -240.827 1169.44C-271.131 1181.02 -298.56 1193.16 -326.771 1209.37C-367.256 1226.72 -382.966 1225.33 -424.896 1212.75C-454.546 1199.43 -482.809 1184.78 -511.517 1169.44ZM181.449 1158.61C127.852 1176.48 74.2556 1194.34 19.0349 1212.75C21.7148 1228.38 24.3948 1244.02 27.1558 1260.12C28.6631 1268.92 30.1704 1277.71 31.7236 1286.77C38.7336 1311.28 38.7336 1311.28 59.1309 1324.16C89.9197 1333.69 116.926 1333.32 148.966 1331.86C156.526 1309.11 163.943 1286.32 171.298 1263.51C175.443 1250.82 179.589 1238.13 183.86 1225.06C195.493 1191.09 195.493 1191.09 181.449 1158.61ZM-1629.93 1550.28C-1713.54 1629.39 -1805.39 1682.07 -1908.28 1732.5C-1883.06 1757.71 -1860.17 1767.1 -1827.75 1781.9C-1755.16 1817.59 -1698.76 1864.33 -1637.59 1916.58C-1613.46 1936.29 -1589.04 1955.59 -1564.5 1974.78C-1553.39 1983.57 -1542.28 1992.37 -1530.83 2001.43C-1460.27 2050.05 -1385.74 2076.47 -1299.52 2064.96C-1224.15 2045.28 -1169.62 1994.69 -1117.86 1938.23C-1104.12 1914.94 -1104.12 1914.94 -1096.21 1894.92C-1122.65 1878.96 -1149.12 1863.07 -1175.72 1847.38C-1192.52 1837.2 -1209.13 1826.64 -1225.12 1815.23C-1251.93 1796.77 -1273.01 1786.23 -1305.82 1788.08C-1345.26 1795.99 -1370.51 1801.08 -1399.38 1829.95C-1402.99 1867.85 -1402.99 1867.85 -1399.38 1905.75C-1392.23 1912.9 -1385.09 1920.04 -1377.72 1927.41C-1350.06 1928.19 -1350.06 1928.19 -1323.59 1916.58C-1308.7 1889.76 -1308.7 1889.76 -1301.93 1862.44C-1294.78 1862.44 -1287.64 1862.44 -1280.28 1862.44C-1294.17 1949.65 -1294.17 1949.65 -1318.85 1982.22C-1360.41 1998.21 -1398.91 2000.65 -1442.69 1992.38C-1470.43 1971.4 -1470.43 1971.4 -1486 1938.23C-1489.24 1905.39 -1488.58 1873.65 -1486 1840.78C-1494.78 1839.97 -1503.56 1839.16 -1512.6 1838.33C-1602.94 1827.6 -1669.27 1802.97 -1745.86 1754.16C-1744.09 1734.61 -1744.09 1734.61 -1735.03 1710.84C-1659.86 1658.29 -1576.11 1634.51 -1486 1624.22C-1486.56 1614.42 -1486.56 1614.42 -1487.14 1604.42C-1488.42 1566.7 -1489.2 1535.29 -1475.85 1499.7C-1439.11 1472.97 -1400.79 1469.63 -1356.07 1472.62C-1320.48 1489.65 -1306.85 1504.35 -1291.48 1540.55C-1283.23 1564.68 -1275.93 1588.74 -1269.45 1613.39C-1291.1 1591.73 -1312.76 1570.08 -1334.41 1548.42C-1361.48 1546.62 -1361.48 1546.62 -1388.55 1548.42C-1403.68 1561.09 -1403.68 1561.09 -1400.73 1596.47C-1402.11 1633.33 -1402.11 1633.33 -1388.55 1656.7C-1337.07 1680 -1302.51 1679.16 -1247.79 1667.53C-1217.95 1654.87 -1190.01 1639.55 -1161.85 1623.54C-1154.44 1619.46 -1147.04 1615.38 -1139.41 1611.17C-1121.34 1601.19 -1103.35 1591.06 -1085.38 1580.91C-1124.83 1509.24 -1182.19 1459.41 -1252.53 1418.48C-1405.31 1375.6 -1521.35 1447.43 -1629.93 1550.28ZM354.69 1526.77C341.021 1555.31 341.021 1555.31 333.035 1580.91C359.957 1597.67 387.012 1614.06 414.242 1630.31C425.547 1637.42 425.547 1637.42 437.081 1644.67C494.632 1678.51 527.708 1682.78 592.897 1667.53C620.827 1657.43 620.827 1657.43 636.208 1635.05C640.722 1596.24 640.722 1596.24 636.208 1559.25C624.91 1545.84 624.91 1545.84 600.341 1544.36C568.48 1545.68 568.48 1545.68 546.203 1575.49C540.174 1584.43 534.144 1593.36 527.932 1602.56C531.818 1524.83 531.818 1524.83 560.414 1488.19C606.162 1466.27 642.164 1469.34 690.345 1483.45C712.677 1499.7 712.677 1499.7 722.828 1526.77C725.195 1559.45 724.715 1591.52 722.828 1624.22C730.951 1625.15 739.074 1626.09 747.444 1627.05C841.967 1640.03 914.402 1668.93 993.518 1721.67C973.56 1771.84 943.396 1784.73 896.281 1807.15C840.053 1827.74 782.137 1834.55 722.828 1840.78C725.285 1852.17 727.741 1863.56 730.272 1875.3C734.043 1921.31 728.75 1934.97 701.173 1970.72C679.518 1992.38 679.518 1992.38 638.238 1996.44C593.065 1995.45 570.607 1981.88 538.759 1949.06C524.094 1919.73 527.228 1894.82 527.932 1862.44C535.078 1862.44 542.224 1862.44 549.587 1862.44C550.703 1869.14 551.82 1875.84 552.97 1882.74C559.064 1909.71 559.064 1909.71 592.897 1927.41C603.616 1927.41 614.336 1927.41 625.38 1927.41C641.386 1895.39 636.861 1865.23 636.208 1829.95C619.124 1818.9 619.124 1818.9 601.695 1807.62C595.288 1803.47 588.882 1799.33 582.281 1795.06C551.759 1783.31 537.539 1787.6 506.276 1797.47C477.593 1810.43 450 1825.06 422.363 1840.1C414.951 1844.01 407.54 1847.91 399.904 1851.93C359.632 1871.57 359.632 1871.57 333.035 1905.75C396.925 1984.01 456.826 2050.61 560.414 2068.17C703.048 2070.04 791.764 1991.15 894.039 1900.38C973.07 1831.33 1049.42 1786.08 1145.1 1743.33C1117.53 1711.38 1086.64 1696.76 1049.01 1678.36C966.164 1634.86 900.957 1577.51 831.104 1515.94C750.816 1449 672.745 1398.82 564.813 1404.31C476.349 1415.66 413.487 1460.16 354.69 1526.77ZM-1063.72 1461.8C-1045.86 1483.24 -1027.99 1504.68 -1009.59 1526.77C-991.72 1519.62 -973.855 1512.47 -955.448 1505.11C-959.021 1483.67 -962.594 1462.23 -966.275 1440.14C-1005.53 1437.96 -1029.78 1441.68 -1063.72 1461.8ZM203.104 1440.14C199.531 1461.58 195.958 1483.02 192.276 1505.11C219.075 1515.83 219.075 1515.83 246.414 1526.77C264.917 1509.19 282.952 1491.11 300.552 1472.62C300.552 1465.48 300.552 1458.33 300.552 1450.97C268.394 1447.4 236.236 1443.82 203.104 1440.14ZM-1125.98 1689.19C-1136.65 1695.22 -1147.31 1701.25 -1158.3 1707.46C-1166.39 1712.15 -1174.49 1716.84 -1182.83 1721.67C-1167.04 1763.01 -1147.46 1776.52 -1108.39 1796.12C-1099.04 1801 -1089.68 1805.89 -1080.05 1810.92C-1053.44 1821.72 -1053.44 1821.72 -1029.13 1811.77C-1006.57 1796.98 -1006.57 1796.98 -987.931 1764.98C-984.046 1728.47 -984.255 1707 -1001.46 1674.3C-1043.45 1635.31 -1084.04 1665.22 -1125.98 1689.19ZM257.242 1656.7C231.272 1687.15 224.472 1703.82 226.113 1744C235.575 1775.77 246.277 1794.49 268.07 1819.12C327.397 1802.39 377.583 1774.13 430.483 1743.33C394.553 1701.41 352.036 1675.61 300.552 1656.7C286.26 1656.7 271.968 1656.7 257.242 1656.7ZM-1648.41 1732.5C-1608.9 1772.01 -1567.76 1766.75 -1514.42 1767.01C-1500.27 1767.17 -1486.12 1767.32 -1471.53 1767.48C-1434.7 1765.16 -1410.57 1759.37 -1377.72 1743.33C-1387.32 1718.04 -1387.32 1718.04 -1420.36 1709.49C-1502.28 1688.46 -1573.65 1693.49 -1648.41 1732.5ZM603.725 1732.5C655.668 1759.37 695.281 1766.7 753.958 1767.01C773.679 1767.24 773.679 1767.24 793.8 1767.48C829.409 1765.1 853.34 1758.67 885.242 1743.33C856.417 1711.76 835.219 1701.17 791.727 1697.82C720.647 1696.72 668.405 1702.65 603.725 1732.5ZM-1009.59 1949.06C-1031.02 1974.08 -1052.46 1999.09 -1074.55 2024.86C-1056.73 2025.15 -1038.91 2025.36 -1021.09 2025.54C-1006.2 2025.72 -1006.2 2025.72 -991.018 2025.92C-966.644 2027.67 -966.644 2027.67 -955.448 2014.03C-955.008 1995.99 -954.985 1977.93 -955.448 1959.89C-973.313 1956.32 -991.179 1952.74 -1009.59 1949.06ZM213.932 1949.06C206.785 1956.21 199.639 1963.36 192.276 1970.72C195.746 1998.9 195.746 1998.9 203.104 2024.86C238.835 2024.86 274.566 2024.86 311.38 2024.86C303.34 2012.35 295.301 1999.85 287.018 1986.96C282.496 1979.93 277.973 1972.89 273.314 1965.64C268.01 1960.17 262.707 1954.7 257.242 1949.06C242.949 1949.06 228.657 1949.06 213.932 1949.06ZM-1710 2037.72C-1727.06 2056.97 -1727.06 2056.97 -1722.85 2084.41C-1715.73 2111.87 -1715.73 2111.87 -1696.46 2126.37C-1671.46 2154.63 -1678.85 2183.7 -1680.9 2219.77C-1698.76 2223.34 -1716.63 2226.91 -1735.03 2230.59C-1739.55 2267.13 -1739.55 2267.13 -1735.03 2306.39C-1709.34 2328.14 -1709.34 2328.14 -1680.9 2338.88C-1677.32 2331.73 -1673.75 2324.58 -1670.07 2317.22C-1644.35 2319.93 -1644.35 2319.93 -1615.93 2328.05C-1590.81 2362.43 -1583.57 2406.48 -1572.62 2447.16C-1546.66 2454.51 -1546.66 2454.51 -1518.48 2457.98C-1511.34 2450.84 -1504.19 2443.69 -1496.83 2436.33C-1505.09 2425.61 -1513.35 2414.89 -1521.87 2403.84C-1551.56 2362.59 -1567.42 2321.99 -1583.45 2273.91C-1608.46 2273.91 -1633.47 2273.91 -1659.24 2273.91C-1645.14 2242.45 -1629.91 2221.83 -1605.1 2198.11C-1611.8 2185.6 -1618.5 2173.1 -1625.4 2160.21C-1647.78 2115.78 -1659.67 2073.4 -1670.07 2024.86C-1692.5 2022.78 -1692.5 2022.78 -1710 2037.72ZM906.897 2024.86C904.803 2033.61 902.71 2042.36 900.553 2051.38C897.733 2062.95 894.914 2074.52 892.009 2086.44C889.246 2097.88 886.482 2109.31 883.635 2121.09C875.291 2151.59 865.157 2179.88 852.759 2208.94C867.646 2225.63 867.646 2225.63 885.242 2241.42C892.388 2241.42 899.534 2241.42 906.897 2241.42C906.897 2252.14 906.897 2262.86 906.897 2273.91C878.312 2273.91 849.728 2273.91 820.276 2273.91C817.652 2280.97 815.028 2288.03 812.325 2295.31C791.001 2350.92 769.004 2399.18 733.656 2447.16C759.14 2454.6 759.14 2454.6 787.794 2457.98C821.616 2440.34 821.616 2440.34 827.424 2413.66C828.862 2405.06 830.3 2396.46 831.781 2387.6C839.707 2341.1 839.707 2341.1 863.587 2317.22C891.91 2320.76 913.835 2326.1 939.38 2338.88C939.38 2331.73 939.38 2324.58 939.38 2317.22C953.672 2310.07 967.965 2302.93 982.69 2295.56C979.117 2274.12 975.544 2252.68 971.863 2230.59C957.57 2230.59 943.278 2230.59 928.552 2230.59C920.432 2196.76 920.432 2196.76 917.725 2154.8C931.754 2132.87 946.172 2111.19 961.035 2089.83C959.709 2059.56 959.709 2059.56 950.208 2035.69C935.915 2032.11 921.623 2028.54 906.897 2024.86ZM-1561.79 2089.83C-1557.95 2124.37 -1551.46 2132.73 -1523.9 2155.47C-1488.58 2196.97 -1489.94 2227.02 -1488.58 2280.12C-1488.61 2308.36 -1488.61 2308.36 -1464.34 2328.05C-1461.59 2320.08 -1458.85 2312.11 -1456.01 2303.9C-1452.29 2293.33 -1448.56 2282.76 -1444.72 2271.88C-1441.08 2261.45 -1437.43 2251.02 -1433.68 2240.28C-1421.25 2209.48 -1406.38 2182.75 -1388.55 2154.8C-1401.5 2150.11 -1414.46 2145.42 -1427.8 2140.58C-1466.68 2126.11 -1503.03 2108.38 -1540.14 2089.83C-1547.28 2089.83 -1554.43 2089.83 -1561.79 2089.83ZM741.1 2110.13C706.428 2125.9 671.742 2141.04 636.208 2154.8C639.306 2162.43 642.405 2170.07 645.597 2177.93C657.914 2209.07 669.49 2240.39 680.871 2271.88C684.696 2282.44 688.52 2293.01 692.46 2303.9C695.335 2311.87 698.211 2319.84 701.173 2328.05C729.112 2300.11 725.216 2287.59 726.212 2248.87C729.379 2203.93 730.382 2191.23 760.048 2155.47C769.204 2148.1 778.36 2140.73 787.794 2133.14C801.818 2109.68 801.818 2109.68 809.449 2089.83C782.148 2089.83 765.878 2098.72 741.1 2110.13ZM-1314.44 2195.88C-1380.14 2274.46 -1385.48 2383.12 -1393.29 2480.99C-1404.24 2598.03 -1424.88 2704.7 -1464.34 2815.31C-1457.8 2813.16 -1451.26 2811.02 -1444.51 2808.8C-1378.74 2788.02 -1314.76 2774.72 -1246.44 2765.91C-1236.63 2764.55 -1226.82 2763.2 -1216.72 2761.8C-1170.7 2755.52 -1124.68 2749.78 -1078.48 2745.01C-999.957 2736.79 -936.141 2728.56 -868.827 2685.38C-859.001 2679.12 -849.175 2672.87 -839.051 2666.43C-786.054 2613.43 -761.463 2546.4 -759.494 2472.37C-759.565 2457.65 -759.694 2442.93 -759.875 2428.21C-759.923 2420.66 -759.972 2413.1 -760.022 2405.32C-760.15 2386.78 -760.344 2368.24 -760.551 2349.7C-893.568 2373.28 -893.568 2373.28 -1009.59 2434.3C-1024.01 2465.85 -1031.24 2487.95 -1031.24 2522.95C-1009.13 2555.9 -1009.13 2555.9 -977.103 2577.09C-952.468 2576.61 -952.468 2576.61 -933.793 2566.27C-922.869 2520.39 -922.869 2520.39 -933.116 2475.58C-936.912 2469.77 -940.709 2463.97 -944.62 2457.98C-881.211 2519.77 -881.211 2519.77 -876.271 2564.24C-880.43 2606.66 -893.65 2622.71 -922.965 2652.89C-956.441 2669.63 -983.538 2666.9 -1020.41 2663.72C-1046.02 2643.5 -1060.05 2627.76 -1074.55 2598.75C-1107.9 2614.7 -1138.71 2633.2 -1169.97 2652.89C-1229.19 2688.65 -1275.05 2707.03 -1345.24 2707.03C-1354.55 2599.98 -1303.91 2516.22 -1236.96 2436.33C-1245.45 2431.86 -1253.94 2427.4 -1262.68 2422.79C-1292.92 2402.63 -1303.15 2395.12 -1312.76 2360.53C-1311.31 2319.9 -1307.08 2293.1 -1285.69 2258.34C-1245.08 2232.96 -1207.83 2235.61 -1161.17 2241.42C-1128.01 2252.25 -1128.01 2252.25 -1107.03 2263.08C-1107.03 2273.8 -1107.03 2284.52 -1107.03 2295.56C-1118.87 2291.54 -1130.71 2287.52 -1142.9 2283.38C-1156.08 2280.25 -1169.25 2277.13 -1182.83 2273.91C-1193.55 2281.05 -1204.27 2288.2 -1215.31 2295.56C-1220.01 2326.12 -1219.11 2342.99 -1203.81 2370.01C-1170.09 2389.58 -1143.9 2379.77 -1107.03 2371.36C-1079.97 2361.1 -1067.01 2355.55 -1052.67 2330.04C-1048.83 2318.38 -1048.83 2318.38 -1044.9 2306.48C-1042.06 2297.95 -1039.22 2289.42 -1036.3 2280.63C-1033.51 2271.71 -1030.73 2262.79 -1027.86 2253.6C-1023.37 2240.35 -1023.37 2240.35 -1018.78 2226.83C-999.882 2169.73 -999.882 2169.73 -1009.59 2111.48C-1128.16 2106.54 -1225.65 2109.44 -1314.44 2195.88ZM235.587 2133.14C244.639 2168.68 254.268 2204.04 264.009 2239.39C266.563 2249.45 269.118 2259.51 271.749 2269.87C288.186 2330.75 288.186 2330.75 333.542 2372.5C376.192 2385.78 376.192 2385.78 419.656 2382.19C444.952 2356.22 444.952 2356.22 462.966 2328.05C450.184 2294.78 450.184 2294.78 421.686 2275.26C391.205 2273.52 371.186 2282.66 343.863 2295.56C366.593 2266.23 384.248 2244.16 421.771 2236.68C458.813 2235.71 488 2238.44 522.518 2252.25C547.432 2285.47 551.64 2320.1 549.587 2360.53C531.907 2403.34 514.801 2417.48 473.794 2436.33C480.074 2442.84 480.074 2442.84 486.482 2449.48C557.769 2527.3 586.247 2602.29 592.897 2707.03C498.478 2703.88 410.089 2672.85 340.014 2607.42C334.138 2600.99 328.261 2594.55 322.208 2587.92C317.071 2598.42 311.935 2608.91 306.643 2619.73C277.594 2654.45 272.791 2658.57 230.85 2665.07C195.213 2666.6 181.836 2663.91 148.966 2647.48C120.552 2611.96 116.483 2589.94 116.483 2544.61C132.048 2508.74 132.048 2508.74 148.966 2479.64C148.966 2472.49 148.966 2465.35 148.966 2457.98C159.685 2457.98 170.405 2457.98 181.449 2457.98C177.652 2465.8 173.856 2473.62 169.945 2481.67C158.667 2515.51 160.974 2532.5 170.621 2566.27C188.487 2569.84 206.352 2573.41 224.759 2577.09C248.462 2554.03 248.462 2554.03 268.07 2522.95C266.399 2482.04 257.35 2449.28 235.587 2414.67C214.639 2402.72 214.639 2402.72 189.612 2395.85C180.546 2393.01 171.481 2390.17 162.141 2387.24C152.657 2384.46 143.173 2381.67 133.401 2378.8C123.959 2375.81 114.517 2372.82 104.789 2369.73C51.4131 2351.58 51.4131 2351.58 -2.62012 2360.53C-9.86841 2517.86 -9.86841 2517.86 63.6987 2650.86C145.658 2724.32 234.182 2735.77 340.854 2747.52C388.196 2752.94 435.387 2759.41 482.591 2765.91C491.89 2767.1 501.189 2768.3 510.77 2769.53C576.546 2778.57 638.126 2794.59 701.173 2815.31C698.889 2807.84 696.605 2800.36 694.252 2792.66C685.544 2764.16 676.907 2735.68 668.69 2707.03C664.964 2694.05 661.237 2681.07 657.397 2667.69C641.027 2601.37 639.134 2533.13 634.875 2465.17C626.356 2349.74 604.507 2253.03 520.488 2169.01C445.756 2111.09 317.892 2078.27 235.587 2133.14ZM-901.31 2133.14C-927.94 2190.04 -943.57 2244.76 -955.448 2306.39C-896.235 2295.39 -838.901 2283.97 -782.206 2263.08C-785.417 2206.8 -785.417 2206.8 -805.215 2155.47C-835.885 2138.09 -866.628 2136.41 -901.31 2133.14ZM40.6902 2154.8C33.5439 2190.53 26.3977 2226.26 19.0349 2263.08C41.8003 2270.35 64.5874 2277.56 87.384 2284.73C106.415 2290.76 106.415 2290.76 125.831 2296.92C159.132 2307.85 159.132 2307.85 192.276 2306.39C180.399 2244.76 164.769 2190.04 138.138 2133.14C103.996 2133.14 73.2317 2145.15 40.6902 2154.8ZM-673.931 2317.22C-673.931 2345.8 -673.931 2374.39 -673.931 2403.84C-659.638 2403.84 -645.346 2403.84 -630.62 2403.84C-606.055 2377.65 -606.055 2377.65 -587.31 2349.7C-594.456 2335.41 -601.602 2321.12 -608.965 2306.39C-649.854 2303.16 -649.854 2303.16 -673.931 2317.22ZM-143.379 2306.39C-150.525 2313.54 -157.671 2320.68 -165.034 2328.05C-166.56 2354.83 -166.56 2354.83 -154.206 2382.19C-122.173 2407.46 -122.173 2407.46 -89.2408 2425.5C-89.2408 2389.77 -89.2408 2354.03 -89.2408 2317.22C-115.197 2309.86 -115.197 2309.86 -143.379 2306.39ZM-468.206 2382.19C-456.104 2407.27 -443.912 2432.3 -431.663 2457.31C-428.23 2464.45 -424.796 2471.59 -421.259 2478.94C-403.731 2518.76 -403.731 2518.76 -370.758 2544.61C-345.746 2491.01 -320.735 2437.41 -294.965 2382.19C-376.067 2328.12 -393.642 2327.96 -468.206 2382.19ZM-1204.48 2501.3C-1241.2 2540.9 -1269.78 2577.56 -1280.28 2631.23C-1221.87 2627.58 -1180.11 2595.05 -1139.52 2555.44C-1100.09 2500.37 -1100.09 2500.37 -1085.38 2436.33C-1130.62 2436.33 -1170.35 2474.15 -1204.48 2501.3ZM322.208 2436.33C342.746 2510.66 384.481 2558.67 441.311 2609.58C468.379 2623.26 486.732 2627.36 517.104 2631.23C501.127 2560.22 457.074 2506.54 398.593 2464.5C362.733 2442.89 362.733 2442.89 322.208 2436.33ZM-630.62 2512.12C-687.767 2579.99 -712.091 2640.55 -709.585 2729.91C-697.566 2848.35 -619.774 2925.35 -544 3010.22C-473.216 3090.71 -426.155 3173.43 -381.586 3270.09C-361.329 3239.71 -346.919 3210.4 -331.508 3177.38C-293.368 3100.54 -244.608 3037.77 -185.843 2975.58C-110.735 2895.73 -54.4531 2812.62 -48.6375 2700.26C-53.948 2597.01 -110.284 2528.45 -183.221 2459.93C-187.938 2455.71 -192.656 2451.5 -197.517 2447.16C-247.315 2463.76 -257.936 2502.48 -281.431 2547.32C-286.022 2555.59 -290.615 2563.87 -295.346 2572.4C-321.174 2620.18 -321.174 2620.18 -325.756 2673.19C-314.239 2702.2 -303.395 2725.58 -284.137 2750.34C-258.221 2762.93 -258.221 2762.93 -230 2761.17C-205.042 2746.75 -205.041 2746.75 -186.689 2728.69C-191.8 2682.69 -218.81 2661.55 -251.655 2631.23C-208.834 2639.8 -175.018 2646.65 -137.965 2669.81C-113.489 2709.58 -116.606 2748.1 -121.724 2793.66C-125.297 2804.38 -128.87 2815.1 -132.551 2826.14C-153.403 2834.43 -153.403 2834.43 -179.245 2839.68C-187.689 2841.52 -196.134 2843.36 -204.834 2845.26C-230.828 2847.88 -248.602 2844.88 -273.31 2836.97C-274.245 2845.87 -275.18 2854.78 -276.144 2863.95C-286.425 2945.64 -302.036 3017.16 -349.103 3086.02C-381.586 3107.67 -381.586 3107.67 -403.241 3107.67C-407.261 3096.95 -407.261 3096.95 -411.362 3086.02C-423.364 3055.41 -423.364 3055.41 -435.216 3035.22C-470.707 2971.78 -480.79 2908.59 -489.862 2836.97C-497.175 2837.6 -504.489 2838.23 -512.024 2838.87C-590.025 2842.82 -590.025 2842.82 -627.237 2815.99C-646.543 2770.94 -645.237 2732.12 -630.62 2685.38C-599.05 2644.01 -560.391 2641.65 -511.517 2631.23C-520.449 2639.05 -529.382 2646.87 -538.586 2654.92C-567.828 2682.34 -567.828 2682.34 -570.392 2714.48C-567.709 2741.53 -567.709 2741.53 -544 2761.17C-511.891 2762.75 -511.891 2762.75 -479.034 2750.34C-450.791 2722.87 -450.791 2722.87 -435.724 2685.38C-438.648 2622.04 -459.976 2577.42 -490.538 2523.63C-494.621 2516.23 -498.703 2508.82 -502.91 2501.19C-512.892 2483.12 -523.017 2465.13 -533.172 2447.16C-573.96 2447.16 -602.796 2484.78 -630.62 2512.12ZM-381.586 2728.69C-416.23 2805.2 -430.822 2882.55 -404.383 2964.41C-394.639 2990.17 -394.639 2990.17 -370.758 2999.39C-331.857 2937.18 -341.221 2847.5 -354.009 2777.71C-360.059 2755.58 -360.059 2755.58 -370.758 2728.69C-374.331 2728.69 -377.904 2728.69 -381.586 2728.69ZM-878.978 2776.06C-888.232 2780.83 -897.485 2785.61 -907.02 2790.53C-920.272 2797.44 -920.272 2797.44 -933.793 2804.48C-948.215 2811.73 -962.646 2818.96 -977.103 2826.14C-949.975 2839.71 -930.247 2837.73 -899.956 2838.32C-830.56 2843.53 -795.453 2873.41 -749.724 2923.59C-742.577 2920.02 -735.431 2916.45 -728.068 2912.77C-731.851 2904.67 -735.633 2896.57 -739.53 2888.23C-746.921 2872.24 -746.921 2872.24 -754.461 2855.92C-759.36 2845.37 -764.259 2834.81 -769.306 2823.94C-779.866 2799.15 -787.592 2776.61 -793.034 2750.34C-830.123 2750.34 -846.38 2759.1 -878.978 2776.06ZM40.6902 2750.34C31.8542 2771.08 23.0662 2791.84 14.2979 2812.61C9.39893 2824.16 4.49976 2835.72 -0.547607 2847.63C-10.6304 2873.15 -18.6277 2896.85 -24.2754 2923.59C22.042 2904.31 22.042 2904.31 55.3245 2868.69C73.1729 2847.8 73.1729 2847.8 101.638 2841.96C117.361 2841.5 117.361 2841.5 133.401 2841.03C179.101 2841.53 179.101 2841.53 213.932 2815.31C191.152 2806.51 168.368 2797.71 145.583 2788.92C132.895 2784.02 120.208 2779.12 107.136 2774.07C85.1501 2765.72 63.0017 2757.78 40.6902 2750.34ZM-1085.38 2847.8C-1098.35 2873.01 -1098.35 2873.01 -1107.03 2901.94C-1089.39 2935.76 -1089.39 2935.76 -1062.71 2941.57C-1054.11 2943.01 -1045.51 2944.45 -1036.65 2945.93C-990.155 2953.85 -990.155 2953.85 -966.275 2977.73C-959.508 3006.16 -959.508 3006.16 -955.448 3031.88C-962.594 3031.88 -969.74 3031.88 -977.103 3031.88C-964.992 3072.22 -964.992 3072.22 -933.793 3096.84C-915.64 3093.82 -897.563 3090.26 -879.655 3086.02C-879.655 3068.15 -879.655 3050.28 -879.655 3031.88C-817.819 3027.02 -796.268 3035.99 -749.724 3075.19C-721.271 3080.62 -721.271 3080.62 -695.586 3075.19C-688.439 3068.04 -681.293 3060.89 -673.931 3053.53C-673.931 3042.81 -673.931 3032.09 -673.931 3021.05C-682.682 3018.95 -691.433 3016.86 -700.45 3014.7C-712.02 3011.88 -723.591 3009.06 -735.512 3006.16C-746.943 3003.39 -758.375 3000.63 -770.152 2997.78C-800.657 2989.44 -828.946 2979.3 -858 2966.91C-862.689 2973.83 -867.379 2980.75 -872.211 2987.89C-890.482 3010.22 -890.482 3010.22 -922.965 3021.05C-922.965 2992.46 -922.965 2963.87 -922.965 2934.42C-930.153 2931.8 -937.341 2929.17 -944.747 2926.47C-998.296 2906.14 -1042.84 2887.5 -1085.38 2847.8ZM311.38 2858.62C290.684 2868.49 290.684 2868.49 270.1 2883.67C234.371 2907.44 201.5 2922.95 159.794 2934.42C156.22 2963.01 152.647 2991.59 148.966 3021.05C131.101 3003.18 113.235 2985.31 94.8281 2966.91C82.4338 2971.26 82.4338 2971.26 69.7893 2975.7C17.2512 2992.62 -35.9219 3006.82 -89.2408 3021.05C-83.8535 3050.89 -83.8535 3050.89 -67.5857 3075.19C-42.3496 3079.72 -42.3496 3079.72 -13.4478 3075.19C-4.96167 3068.04 3.52441 3060.89 12.2678 3053.53C48.7383 3025.74 71.7471 3028.37 116.483 3031.88C116.483 3049.74 116.483 3067.61 116.483 3086.02C137.922 3089.59 159.361 3093.16 181.449 3096.84C195.741 3078.98 210.034 3061.11 224.759 3042.7C217.613 3035.56 210.467 3028.41 203.104 3021.05C207.164 2992.62 207.164 2992.62 213.932 2966.91C231.35 2962.22 231.35 2962.22 249.121 2957.43C293.603 2945.36 293.603 2945.36 333.035 2923.59C341.824 2895.93 341.824 2895.93 343.863 2869.45C333.143 2865.88 322.424 2862.31 311.38 2858.62Z" fill="#D4B563" fill-opacity="0.2"/>
<path d="M571.242 1115.3C582.07 1158.61 582.07 1158.61 582.07 1158.61L571.242 1115.3Z" fill="#FDFDFD"/>
<path d="M246.414 2003.2C268.069 2014.03 268.069 2014.03 268.069 2014.03L246.414 2003.2Z" fill="#FAFAFA"/>
<path d="M1155.93 1017.84C1177.58 1028.67 1177.58 1028.67 1177.58 1028.67L1155.93 1017.84Z" fill="#FAFAFA"/>
<path d="M852.758 617.203C874.413 628.031 874.413 628.031 874.413 628.031L852.758 617.203Z" fill="white"/>
<path d="M538.758 584.719C560.413 595.547 560.413 595.547 560.413 595.547L538.758 584.719Z" fill="#F9F9F9"/>
</g>
<defs>
<clipPath id="clip0_2038_8128">
<rect width="3454" height="3465" fill="white" transform="translate(-2114)"/>
</clipPath>
</defs>
</svg>
